<svg xmlns="http://www.w3.org/2000/svg" width="443" viewBox="0 0 443 117" height="117"><g fill="#26c6da"><path d="M45.54 50.49H33.75v25.29c-1.26-2.34-4.86-5.49-12.51-5.49C8.73 70.29 0 80.46 0 93.42c0 13.41 9 23.31 21.6 23.31 5.94 0 10.44-2.7 12.42-6.21 0 2.07.27 4.23.45 5.13H45.9c-.18-1.8-.36-5.04-.36-8.01V50.49zM12.06 93.42C12.06 85.5 16.92 81 23.04 81s10.89 4.41 10.89 12.33c0 8.01-4.77 12.69-10.89 12.69-6.3 0-10.98-4.68-10.98-12.6zM51.93 103.59c0 6.93 5.76 13.32 15.21 13.32 6.57 0 10.8-3.06 13.05-6.57 0 1.71.18 4.14.45 5.31h10.98c-.27-1.53-.54-4.68-.54-7.02V86.85c0-8.91-5.22-16.83-19.26-16.83-11.88 0-18.27 7.65-18.99 14.58l10.62 2.25c.36-3.87 3.24-7.2 8.46-7.2 5.04 0 7.47 2.61 7.47 5.76 0 1.53-.81 2.79-3.33 3.15l-10.89 1.62c-7.38 1.08-13.23 5.49-13.23 13.41zM69.66 108c-3.87 0-5.76-2.52-5.76-5.13 0-3.42 2.43-5.13 5.49-5.58l9.99-1.53v1.98c0 7.83-4.68 10.26-9.72 10.26zM114.03 58.14h-10.8v6.21c0 3.96-2.16 7.02-6.84 7.02h-2.25v10.62h8.01v20.61c0 8.55 5.4 13.68 14.04 13.68 3.51 0 5.67-.63 6.75-1.08v-9.9c-.63.18-2.25.36-3.69.36-3.42 0-5.22-1.26-5.22-5.13V81.99h8.91V71.37h-8.91V58.14zM127.08 103.59c0 6.93 5.76 13.32 15.21 13.32 6.57 0 10.8-3.06 13.05-6.57 0 1.71.18 4.14.45 5.31h10.98c-.27-1.53-.54-4.68-.54-7.02V86.85c0-8.91-5.22-16.83-19.26-16.83-11.88 0-18.27 7.65-18.99 14.58l10.62 2.25c.36-3.87 3.24-7.2 8.46-7.2 5.04 0 7.47 2.61 7.47 5.76 0 1.53-.81 2.79-3.33 3.15l-10.89 1.62c-7.38 1.08-13.23 5.49-13.23 13.41zm17.73 4.41c-3.87 0-5.76-2.52-5.76-5.13 0-3.42 2.43-5.13 5.49-5.58l9.99-1.53v1.98c0 7.83-4.68 10.26-9.72 10.26zM215.64 71.37h-12.6l-10.53 29.7-10.98-29.7h-13.14l18.09 44.28h11.97l17.19-44.28zM231.3 115.65V71.37h-11.97v44.28h11.97zm-13.41-58.77c0 3.96 3.33 7.29 7.38 7.29 4.14 0 7.38-3.33 7.38-7.29 0-4.14-3.24-7.47-7.38-7.47-4.05 0-7.38 3.33-7.38 7.47zM274.05 115.65v-10.44h-21.96l21.6-23.85v-9.99h-35.73v10.35h20.43l-20.97 23.4v10.53h36.63zM288.63 88.47c.27-4.05 3.69-8.73 9.9-8.73 6.84 0 9.72 4.32 9.9 8.73h-19.8zm20.97 11.52c-1.44 3.96-4.5 6.75-10.08 6.75-5.94 0-10.89-4.23-11.16-10.08h31.68c0-.18.18-1.98.18-3.69 0-14.22-8.19-22.95-21.87-22.95-11.34 0-21.78 9.18-21.78 23.31 0 14.94 10.71 23.67 22.86 23.67 10.89 0 17.91-6.39 20.16-14.04l-9.99-2.97zM368.28 50.49h-11.79v25.29c-1.26-2.34-4.86-5.49-12.51-5.49-12.51 0-21.24 10.17-21.24 23.13 0 13.41 9 23.31 21.6 23.31 5.94 0 10.44-2.7 12.42-6.21 0 2.07.27 4.23.45 5.13h11.43c-.18-1.8-.36-5.04-.36-8.01V50.49zM334.8 93.42c0-7.92 4.86-12.42 10.98-12.42s10.89 4.41 10.89 12.33c0 8.01-4.77 12.69-10.89 12.69-6.3 0-10.98-4.68-10.98-12.6z"/><path d="M441.138 46.08h-35.51V10.57h35.51v35.51zM429.628.056l-.657.852 11.127 8.586H404.55v36.03l-11.509-8.88-.656.852 12.165 9.66h37.664V9.494L429.628.056z"/><path stroke-miterlimit="10" d="M429.3 37.068h-36.587V.48H429.3v36.588z" stroke="#26c6da" stroke-width=".8125"/></g></svg>