<?xml version="1.0" standalone="no"?><!DOCTYPE svg PUBLIC "-//W3C//DTD SVG 1.1//EN" "http://www.w3.org/Graphics/SVG/1.1/DTD/svg11.dtd"><svg xmlns:xlink="http://www.w3.org/1999/xlink" version="1.1" class="highcharts-root" style="font-family:&quot;Lucida Grande&quot;, &quot;Lucida Sans Unicode&quot;, Arial, Helvetica, sans-serif;font-size:12px;" xmlns="http://www.w3.org/2000/svg" width="600" height="400" viewBox="0 0 600 400"><desc>Created with Highstock 7.0.3</desc><defs><clipPath id="highcharts-olotbk9-12520"><rect x="0" y="0" width="525" height="244" fill="none"></rect></clipPath><clipPath id="highcharts-olotbk9-12619"><rect x="0" y="0" width="525" height="244" fill="none"></rect></clipPath><clipPath id="highcharts-olotbk9-12816"><rect x="65" y="62" width="525" height="244" fill="none"></rect></clipPath></defs><rect fill="#ffffff" class="highcharts-background" x="0" y="0" width="600" height="400" rx="0" ry="0"></rect><rect fill="none" class="highcharts-plot-background" x="65" y="62" width="525" height="244"></rect><g class="highcharts-pane-group" data-z-index="0"></g><g class="highcharts-grid highcharts-xaxis-grid " data-z-index="1"><path fill="none" data-z-index="1" class="highcharts-grid-line" d="M 155.5 62 L 155.5 306" opacity="1"></path><path fill="none" data-z-index="1" class="highcharts-grid-line" d="M 249.5 62 L 249.5 306" opacity="1"></path><path fill="none" data-z-index="1" class="highcharts-grid-line" d="M 342.5 62 L 342.5 306" opacity="1"></path><path fill="none" data-z-index="1" class="highcharts-grid-line" d="M 435.5 62 L 435.5 306" opacity="1"></path><path fill="none" data-z-index="1" class="highcharts-grid-line" d="M 529.5 62 L 529.5 306" opacity="1"></path></g><g class="highcharts-grid highcharts-yaxis-grid " data-z-index="1"><path fill="none" stroke="#e6e6e6" stroke-width="1" data-z-index="1" class="highcharts-grid-line" d="M 65 306.5 L 590 306.5" opacity="1"></path><path fill="none" stroke="#e6e6e6" stroke-width="1" data-z-index="1" class="highcharts-grid-line" d="M 65 245.5 L 590 245.5" opacity="1"></path><path fill="none" stroke="#e6e6e6" stroke-width="1" data-z-index="1" class="highcharts-grid-line" d="M 65 184.5 L 590 184.5" opacity="1"></path><path fill="none" stroke="#e6e6e6" stroke-width="1" data-z-index="1" class="highcharts-grid-line" d="M 65 123.5 L 590 123.5" opacity="1"></path><path fill="none" stroke="#e6e6e6" stroke-width="1" data-z-index="1" class="highcharts-grid-line" d="M 65 61.5 L 590 61.5" opacity="1"></path></g><rect fill="none" class="highcharts-plot-border" data-z-index="1" x="65" y="62" width="525" height="244"></rect><g class="highcharts-axis highcharts-xaxis " data-z-index="2"><path fill="none" class="highcharts-tick" stroke="#ccd6eb" stroke-width="1" d="M 155.5 306 L 155.5 316" opacity="1"></path><path fill="none" class="highcharts-tick" stroke="#ccd6eb" stroke-width="1" d="M 249.5 306 L 249.5 316" opacity="1"></path><path fill="none" class="highcharts-tick" stroke="#ccd6eb" stroke-width="1" d="M 342.5 306 L 342.5 316" opacity="1"></path><path fill="none" class="highcharts-tick" stroke="#ccd6eb" stroke-width="1" d="M 435.5 306 L 435.5 316" opacity="1"></path><path fill="none" class="highcharts-tick" stroke="#ccd6eb" stroke-width="1" d="M 529.5 306 L 529.5 316" opacity="1"></path><text x="327.5" data-z-index="7" text-anchor="middle" transform="translate(0,0)" class="highcharts-axis-title" style="color:#666666;fill:#666666;" y="344.5"><tspan>Years</tspan></text><path fill="none" class="highcharts-axis-line" stroke="#ccd6eb" stroke-width="1" data-z-index="7" d="M 65 306.5 L 590 306.5"></path></g><g class="highcharts-axis highcharts-yaxis " data-z-index="2"><text x="25.100000381469727" data-z-index="7" text-anchor="middle" transform="translate(0,0) rotate(270 25.100000381469727 184)" class="highcharts-axis-title" style="color:#666666;fill:#666666;" y="184"><tspan>Approval Rating</tspan></text><path fill="none" class="highcharts-axis-line" data-z-index="7" d="M 65 62 L 65 306"></path></g><g class="highcharts-series-group" data-z-index="3"><g data-z-index="0.1" class="highcharts-series highcharts-series-0 highcharts-line-series highcharts-color-0 " transform="translate(65,62) scale(1 1)" clip-path="url(#highcharts-olotbk9-12619)"><path fill="none" d="M 519.85294117647 170.8 L 512.9561377901 173.85000000000002 L 509.38001751569 161.65 L 507.59195737848 167.75 L 502.22777696687 161.65 L 500.1842796672 164.7 L 496.86359655525 170.8 L 495.07553641804 167.75 L 495.07553641804 164.7 L 489.71135600642 167.75 L 486.13523573201 167.75 L 482.5591154576 164.7 L 475.40687490877 167.75 L 475.40687490877 164.7 L 471.83075463436 158.60000000000002 L 468.25463435995 164.7 L 464.93395124799 176.9 L 457.52627353671 158.60000000000002 L 455.7382133995 152.5 L 448.58597285068 164.7 L 445.00985257627 161.65 L 441.43373230185 155.55 L 437.85761202744 146.4 L 434.28149175303 143.35000000000002 L 428.91731134141 134.2 L 418.18895051817 125.05000000000001 L 409.24864983214 115.9 L 403.88446942052 109.80000000000001 L 402.09640928332 109.80000000000001 L 402.09640928332 109.80000000000001 L 400.30834914611 100.65 L 394.94416873449 82.35000000000002 L 393.15610859729 70.15 L 382.42774777405 45.75 L 377.06356736243 42.70000000000002 L 373.48744708802 88.45000000000002 L 364.54714640199 64.05000000000001 L 363.26996058969 54.900000000000006 L 321.63370310904 73.20000000000002 L 319.84564297183 64.05000000000001 L 314.48146256021 57.95000000000002 L 307.32922201139 82.35000000000002 L 298.38892132535 85.4 L 293.02474091374 76.25 L 285.87250036491 88.45000000000002 L 278.72025981609 94.55000000000001 L 273.10064224201 94.55000000000001 L 262.62771858123 94.55000000000001 L 257.00810100715 91.5 L 246.27974018391 100.65 L 245.00255437162 100.65 L 235.29594219822 100.65 L 230.18719894906 109.80000000000001 L 224.82301853744 112.85 L 219.45883812582 122 L 214.0946577142 100.65 L 207.19785432784 97.60000000000002 L 203.11085972851 94.55000000000001 L 198.00211647935 94.55000000000001 L 187.27375565611 76.25 L 178.58889213254 97.60000000000002 L 173.22471172092 73.20000000000002 L 164.53984819734 70.15 L 160.45285359801 88.45000000000002 L 156.8767333236 70.15 L 153.55605021165 79.30000000000001 L 145.89293533791 79.30000000000001 L 141.0396292512 61 L 135.67544883959 79.30000000000001 L 128.2677711283 64.05000000000001 L 122.64815355423 70.15 L 119.07203327981 73.20000000000002 L 112.68610421836 82.35000000000002 L 110.13173259378 79.30000000000001 L 106.81104948183 76.25 L 99.658808933002 61 L 96.338125821048 73.20000000000002 L 92.506568384177 67.10000000000002 L 90.973945409429 82.35000000000002 L 87.142387972559 73.20000000000002 L 79.990147423734 48.80000000000001 L 73.348781199825 76.25 L 69.517223762954 82.35000000000002 L 65.685666326084 79.30000000000001 L 64.153043351336 73.20000000000002 L 57.000802802511 67.10000000000002 L 51.636622390892 54.900000000000006 L 48.060502116479 70.15 L 42.696321704861 51.85000000000002 L 35.544081156036 64.05000000000001 L 33.756021018829 54.900000000000006 L 30.179900744417 54.900000000000006 L 28.647277769669 73.20000000000002 L 23.538534520508 64.05000000000001 L 21.239600058386 54.900000000000006 L 17.408042621515 45.75 L 12.299299372354 64.05000000000001 L 5.1470588235294 64.05000000000001" class="highcharts-graph" data-z-index="1" stroke="#7cb5ec" stroke-width="2" stroke-linejoin="round" stroke-linecap="round"></path></g><g data-z-index="0.1" class="highcharts-markers highcharts-series-0 highcharts-line-series highcharts-color-0 " transform="translate(65,62) scale(1 1)" clip-path="none"></g><g data-z-index="0.1" class="highcharts-series highcharts-series-1 highcharts-line-series highcharts-color-1 " transform="translate(65,62) scale(1 1)" clip-path="url(#highcharts-olotbk9-12619)"><path fill="none" d="M 519.85294117647 42.70000000000002 L 512.9561377901 54.900000000000006 L 509.38001751569 67.10000000000002 L 507.59195737848 57.95000000000002 L 502.22777696687 61 L 500.1842796672 57.95000000000002 L 496.86359655525 57.95000000000002 L 495.07553641804 70.15 L 495.07553641804 64.05000000000001 L 489.71135600642 57.95000000000002 L 486.13523573201 45.75 L 482.5591154576 54.900000000000006 L 475.40687490877 51.85000000000002 L 475.40687490877 51.85000000000002 L 471.83075463436 67.10000000000002 L 468.25463435995 51.85000000000002 L 464.93395124799 79.30000000000001 L 457.52627353671 61 L 455.7382133995 67.10000000000002 L 448.58597285068 54.900000000000006 L 445.00985257627 64.05000000000001 L 441.43373230185 73.20000000000002 L 437.85761202744 67.10000000000002 L 434.28149175303 76.25 L 428.91731134141 79.30000000000001 L 418.18895051817 94.55000000000001 L 409.24864983214 115.9 L 403.88446942052 106.75 L 402.09640928332 118.95 L 402.09640928332 115.9 L 400.30834914611 122 L 394.94416873449 134.2 L 393.15610859729 143.35000000000002 L 382.42774777405 167.75 L 377.06356736243 167.75 L 373.48744708802 134.2 L 364.54714640199 155.55 L 363.26996058969 158.60000000000002 L 321.63370310904 146.4 L 319.84564297183 152.5 L 314.48146256021 152.5 L 307.32922201139 134.2 L 298.38892132535 134.2 L 293.02474091374 149.45 L 285.87250036491 134.2 L 278.72025981609 125.05000000000001 L 273.10064224201 134.2 L 262.62771858123 134.2 L 257.00810100715 134.2 L 246.27974018391 131.15 L 245.00255437162 112.85 L 235.29594219822 140.3 L 230.18719894906 134.2 L 224.82301853744 146.4 L 219.45883812582 158.60000000000002 L 214.0946577142 134.2 L 207.19785432784 128.10000000000002 L 203.11085972851 134.2 L 198.00211647935 134.2 L 187.27375565611 143.35000000000002 L 178.58889213254 146.4 L 173.22471172092 155.55 L 164.53984819734 161.65 L 160.45285359801 149.45 L 156.8767333236 155.55 L 153.55605021165 152.5 L 145.89293533791 149.45 L 141.0396292512 158.60000000000002 L 135.67544883959 149.45 L 128.2677711283 158.60000000000002 L 122.64815355423 149.45 L 119.07203327981 152.5 L 112.68610421836 152.5 L 110.13173259378 140.3 L 106.81104948183 164.7 L 99.658808933002 176.9 L 96.338125821048 183 L 92.506568384177 183 L 90.973945409429 131.15 L 87.142387972559 179.95 L 79.990147423734 189.1 L 73.348781199825 158.60000000000002 L 69.517223762954 176.9 L 65.685666326084 179.95 L 64.153043351336 179.95 L 57.000802802511 189.1 L 51.636622390892 183 L 48.060502116479 176.9 L 42.696321704861 198.25 L 35.544081156036 201.3 L 33.756021018829 210.45 L 30.179900744417 198.25 L 28.647277769669 161.65 L 23.538534520508 210.45 L 21.239600058386 213.5 L 17.408042621515 219.6 L 12.299299372354 225.7 L 5.1470588235294 228.75" class="highcharts-graph" data-z-index="1" stroke="#434348" stroke-width="2" stroke-linejoin="round" stroke-linecap="round"></path></g><g data-z-index="0.1" class="highcharts-markers highcharts-series-1 highcharts-line-series highcharts-color-1 " transform="translate(65,62) scale(1 1)" clip-path="none"></g><g data-z-index="0.1" class="highcharts-series highcharts-series-2 highcharts-line-series highcharts-color-2 " transform="translate(65,62) scale(1 1)" clip-path="url(#highcharts-olotbk9-12619)"><path fill="none" d="M 519.85294117647 213.5 L 512.9561377901 204.35 L 509.38001751569 201.3 L 507.59195737848 204.35 L 502.22777696687 210.45 L 500.1842796672 207.4 L 496.86359655525 204.35 L 495.07553641804 195.2 L 495.07553641804 201.3 L 489.71135600642 204.35 L 486.13523573201 216.55 L 482.5591154576 210.45 L 475.40687490877 210.45 L 475.40687490877 216.55 L 471.83075463436 207.4 L 468.25463435995 216.55 L 464.93395124799 176.9 L 457.52627353671 210.45 L 455.7382133995 213.5 L 448.58597285068 213.5 L 445.00985257627 204.35 L 441.43373230185 204.35 L 437.85761202744 219.6 L 434.28149175303 213.5 L 428.91731134141 216.55 L 418.18895051817 210.45 L 409.24864983214 201.3 L 403.88446942052 213.5 L 402.09640928332 201.3 L 402.09640928332 207.4 L 400.30834914611 210.45 L 394.94416873449 216.55 L 393.15610859729 219.6 L 382.42774777405 216.55 L 377.06356736243 219.6 L 373.48744708802 207.4 L 364.54714640199 210.45 L 363.26996058969 216.55 L 321.63370310904 213.5 L 319.84564297183 213.5 L 314.48146256021 219.6 L 307.32922201139 216.55 L 298.38892132535 213.5 L 293.02474091374 207.4 L 285.87250036491 210.45 L 278.72025981609 210.45 L 273.10064224201 204.35 L 262.62771858123 201.3 L 257.00810100715 204.35 L 246.27974018391 198.25 L 245.00255437162 216.55 L 235.29594219822 192.15 L 230.18719894906 186.05 L 224.82301853744 170.8 L 219.45883812582 149.45 L 214.0946577142 198.25 L 207.19785432784 207.4 L 203.11085972851 204.35 L 198.00211647935 204.35 L 187.27375565611 213.5 L 178.58889213254 186.05 L 173.22471172092 204.35 L 164.53984819734 201.3 L 160.45285359801 192.15 L 156.8767333236 204.35 L 153.55605021165 201.3 L 145.89293533791 204.35 L 141.0396292512 213.5 L 135.67544883959 201.3 L 128.2677711283 210.45 L 122.64815355423 210.45 L 119.07203327981 204.35 L 112.68610421836 195.2 L 110.13173259378 210.45 L 106.81104948183 192.15 L 99.658808933002 195.2 L 96.338125821048 176.9 L 92.506568384177 179.95 L 90.973945409429 219.6 L 87.142387972559 179.95 L 79.990147423734 195.2 L 73.348781199825 195.2 L 69.517223762954 173.85000000000002 L 65.685666326084 173.85000000000002 L 64.153043351336 179.95 L 57.000802802511 176.9 L 51.636622390892 195.2 L 48.060502116479 186.05 L 42.696321704861 179.95 L 35.544081156036 167.75 L 33.756021018829 167.75 L 30.179900744417 173.85000000000002 L 28.647277769669 198.25 L 23.538534520508 158.60000000000002 L 21.239600058386 161.65 L 17.408042621515 164.7 L 12.299299372354 140.3 L 5.1470588235294 134.2" class="highcharts-graph" data-z-index="1" stroke="#90ed7d" stroke-width="2" stroke-linejoin="round" stroke-linecap="round"></path></g><g data-z-index="0.1" class="highcharts-markers highcharts-series-2 highcharts-line-series highcharts-color-2 " transform="translate(65,62) scale(1 1)" clip-path="none"></g></g><text x="300" text-anchor="middle" class="highcharts-title" data-z-index="4" style="color:#333333;font-size:18px;fill:#333333;" y="24"><tspan>Richard Nixon Approval Ratings</tspan></text><text x="300" text-anchor="middle" class="highcharts-subtitle" data-z-index="4" style="color:#666666;fill:#666666;" y="46"><tspan>1969-1974</tspan></text><g class="highcharts-legend" data-z-index="7" transform="translate(117,359)"><rect fill="none" class="highcharts-legend-box" rx="0" ry="0" x="0" y="0" width="365" height="26" visibility="visible"></rect><g data-z-index="1"><g><g class="highcharts-legend-item highcharts-line-series highcharts-color-0 highcharts-series-0" data-z-index="1" transform="translate(8,3)"><path fill="none" d="M 0 11 L 16 11" class="highcharts-graph" stroke="#7cb5ec" stroke-width="2"></path><path fill="#7cb5ec" d="M 12 11 A 4 4 0 1 1 11.999998000000167 10.996000000666664 Z" class="highcharts-point"></path><text x="21" style="color:#333333;cursor:pointer;font-size:12px;font-weight:bold;fill:#333333;" text-anchor="start" data-z-index="2" y="15"><tspan>Approving</tspan></text></g><g class="highcharts-legend-item highcharts-line-series highcharts-color-1 highcharts-series-1" data-z-index="1" transform="translate(114.61666870117188,3)"><path fill="none" d="M 0 11 L 16 11" class="highcharts-graph" stroke="#434348" stroke-width="2"></path><path fill="#434348" d="M 8 7 L 12 11 8 15 4 11 Z" class="highcharts-point"></path><text x="21" y="15" style="color:#333333;cursor:pointer;font-size:12px;font-weight:bold;fill:#333333;" text-anchor="start" data-z-index="2"><tspan>Disapproving</tspan></text></g><g class="highcharts-legend-item highcharts-line-series highcharts-color-2 highcharts-series-2" data-z-index="1" transform="translate(239.63333892822266,3)"><path fill="none" d="M 0 11 L 16 11" class="highcharts-graph" stroke="#90ed7d" stroke-width="2"></path><path fill="#90ed7d" d="M 4 7 L 12 7 12 15 4 15 Z" class="highcharts-point"></path><text x="21" y="15" style="color:#333333;cursor:pointer;font-size:12px;font-weight:bold;fill:#333333;" text-anchor="start" data-z-index="2"><tspan>Unsure/NoData</tspan></text></g></g></g></g><g class="highcharts-axis-labels highcharts-xaxis-labels " data-z-index="7"><text x="156.48481973435" style="color:#666666;cursor:default;font-size:11px;fill:#666666;" text-anchor="middle" transform="translate(0,0)" y="325" opacity="1">1970</text><text x="249.71938403153" style="color:#666666;cursor:default;font-size:11px;fill:#666666;" text-anchor="middle" transform="translate(0,0)" y="325" opacity="1">1971</text><text x="342.95394832871" style="color:#666666;cursor:default;font-size:11px;fill:#666666;" text-anchor="middle" transform="translate(0,0)" y="325" opacity="1">1972</text><text x="436.44394978835" style="color:#666666;cursor:default;font-size:11px;fill:#666666;" text-anchor="middle" transform="translate(0,0)" y="325" opacity="1">1973</text><text x="529.67851408553" style="color:#666666;cursor:default;font-size:11px;fill:#666666;" text-anchor="middle" transform="translate(0,0)" y="325" opacity="1">1974</text></g><g class="highcharts-axis-labels highcharts-yaxis-labels " data-z-index="7"><text x="50" style="color:#666666;cursor:default;font-size:11px;fill:#666666;" text-anchor="end" transform="translate(0,0)" y="310" opacity="1">0</text><text x="50" style="color:#666666;cursor:default;font-size:11px;fill:#666666;" text-anchor="end" transform="translate(0,0)" y="249" opacity="1">20</text><text x="50" style="color:#666666;cursor:default;font-size:11px;fill:#666666;" text-anchor="end" transform="translate(0,0)" y="188" opacity="1">40</text><text x="50" style="color:#666666;cursor:default;font-size:11px;fill:#666666;" text-anchor="end" transform="translate(0,0)" y="127" opacity="1">60</text><text x="50" style="color:#666666;cursor:default;font-size:11px;fill:#666666;" text-anchor="end" transform="translate(0,0)" y="66" opacity="1">80</text></g><text x="590" class="highcharts-credits" text-anchor="end" data-z-index="8" style="cursor:pointer;color:#999999;font-size:9px;fill:#999999;" y="395"><tspan>The American Presidency Project</tspan></text><g class="highcharts-control-points" data-z-index="99" clip-path="url(#highcharts-olotbk9-12816)"></g></svg>